<svg width="200" height="200" viewBox="0 0 225 240" fill="none" xmlns="http://www.w3.org/2000/svg">
<path d="M75.2571 193.248C75.2571 194.24 74.2137 195.034 72.8982 195.034C71.4012 195.183 70.3579 194.389 70.3579 193.248C70.3579 192.255 71.4012 191.461 72.7167 191.461C74.0776 191.312 75.2571 192.106 75.2571 193.248ZM61.1492 191.014C60.8317 192.007 61.7389 193.148 63.0998 193.446C64.2792 193.942 65.6401 193.446 65.9123 192.454C66.1845 191.461 65.3226 190.32 63.9617 189.873C62.7823 189.526 61.4667 190.022 61.1492 191.014ZM81.1996 190.171C79.8841 190.518 78.9768 191.461 79.1129 192.602C79.249 193.595 80.4284 194.24 81.7893 193.893C83.1048 193.545 84.0121 192.602 83.876 191.61C83.7399 190.667 82.5151 190.022 81.1996 190.171ZM111.048 0C48.13 0 0 52.2573 0 121.09C0 176.126 31.6633 223.222 76.8901 239.798C82.6966 240.939 84.7379 237.019 84.7379 233.793C84.7379 230.716 84.6018 213.744 84.6018 203.322C84.6018 203.322 52.8478 210.766 46.1794 188.533C46.1794 188.533 41.0081 174.092 33.5686 170.37C33.5686 170.37 23.1804 162.578 34.2944 162.727C34.2944 162.727 45.5897 163.72 51.8044 175.531C61.7389 194.687 78.3871 189.178 84.874 185.903C85.9173 177.963 88.8659 172.454 92.1321 169.179C66.7742 166.102 41.1895 162.082 41.1895 114.341C41.1895 100.693 44.6371 93.8447 51.8952 85.1104C50.7157 81.8846 46.8599 68.5845 53.0746 51.4136C62.5554 48.1878 84.375 64.8129 84.375 64.8129C93.4476 62.0338 103.201 60.5946 112.863 60.5946C122.525 60.5946 132.278 62.0338 141.351 64.8129C141.351 64.8129 163.17 48.1382 172.651 51.4136C178.866 68.6342 175.01 81.8846 173.831 85.1104C181.089 93.8943 185.534 100.743 185.534 114.341C185.534 162.231 158.816 166.052 133.458 169.179C137.631 173.099 141.169 180.543 141.169 192.205C141.169 208.93 141.033 229.624 141.033 233.694C141.033 236.919 143.12 240.84 148.881 239.699C194.244 223.222 225 176.126 225 121.09C225 52.2573 173.967 0 111.048 0ZM44.0927 171.164C43.503 171.66 43.6391 172.801 44.4103 173.744C45.1361 174.538 46.1794 174.886 46.7692 174.24C47.3589 173.744 47.2228 172.603 46.4516 171.66C45.7258 170.866 44.6825 170.518 44.0927 171.164ZM39.1936 167.144C38.876 167.789 39.3296 168.583 40.2369 169.079C40.9627 169.576 41.87 169.427 42.1875 168.732C42.505 168.087 42.0514 167.293 41.1442 166.796C40.2369 166.499 39.5111 166.648 39.1936 167.144ZM53.8911 184.811C53.1653 185.456 53.4375 186.945 54.4808 187.888C55.5242 189.029 56.8397 189.178 57.4294 188.384C58.0192 187.739 57.747 186.25 56.8397 185.307C55.8417 184.166 54.4809 184.017 53.8911 184.811ZM48.7198 177.516C47.994 178.012 47.994 179.302 48.7198 180.444C49.4456 181.585 50.6704 182.082 51.2601 181.585C51.9859 180.94 51.9859 179.65 51.2601 178.508C50.625 177.367 49.4456 176.871 48.7198 177.516Z" fill="white"/>
</svg>
