<svg width="200" height="200" viewBox="0 0 226 241" fill="none" xmlns="http://www.w3.org/2000/svg">
<path d="M200.522 0H25.0653C11.2167 0 0 11.954 0 26.7129V213.703C0 228.462 11.2167 240.416 25.0653 240.416H200.522C214.371 240.416 225.587 228.462 225.587 213.703V26.7129C225.587 11.954 214.371 0 200.522 0ZM59.3796 186.99C50.6444 186.99 43.5634 179.444 43.5634 170.134V110.337C43.576 101.041 50.6569 93.495 59.3796 93.495C68.1149 93.495 75.1958 101.041 75.1958 110.351V170.148C75.1958 179.444 68.1149 186.99 59.3796 186.99ZM58.8282 76.3587C49.1655 76.3587 42.7112 69.4935 42.7112 60.331C42.7112 51.1685 49.153 44.3033 59.8935 44.3033C69.5561 44.3033 76.0104 51.1685 76.0104 60.331C76.0104 69.4935 69.5687 76.3587 58.8282 76.3587ZM172.687 186.99C164.24 186.99 157.385 179.684 157.385 170.682V135.888C157.385 121.757 149.226 120.208 146.168 120.208C143.11 120.208 132.909 120.675 132.909 135.888V170.682C132.909 179.684 126.053 186.99 117.606 186.99H116.591C108.144 186.99 101.289 179.684 101.289 170.682V110.351C101.289 101.041 108.37 93.495 117.105 93.495C125.84 93.495 132.921 101.041 132.921 110.351C132.921 110.351 136.455 93.495 160.468 93.495C175.745 93.495 187.99 106.544 187.99 135.888V170.682C187.99 179.684 181.134 186.99 172.687 186.99Z" fill="white"/>
</svg>
